<!-- Generated by IcoMoon.io -->
<svg version="1.1" xmlns="http://www.w3.org/2000/svg" width="45" height="45" viewBox="0 0 45 45">
<title>brain</title>
<path fill="#2caee2" d="M35.194 27.702c0.662 0.297 1.728 0.342 2.295-0.108 0.742-0.598 1.256-1.363 1.543-2.313 1.116-3.677-1.449-8.996-2.808-11.448-0.356-0.634-1.228-1.305-1.913-1.543-3.204-1.093-3.843-1.796-3.758-2.529 0.045-0.401 0.333-0.675 0.738-0.864 0.594-0.274 1.206-0.891 1.143-1.616-0.099-1.134-0.454-2.052-1.071-2.749-1.273-1.427-3.483-1.723-5.121-1.723-0.612 0-1.202 0.045-1.714 0.099-0.72 0.081-1.305 0.783-1.305 1.508v34.133c0 0.729-0.009 1.341-0.018 1.368-0.013 0.027 0.193 0.617 0.662 1.174 0.612 0.733 1.413 1.089 2.412 1.089 1.534 0 3.217-0.814 4.459-1.584 0.617-0.383 0.572-0.999-0.049-1.377-1.143-0.688-2.452-1.642-3.137-2.691-0.396-0.612-0.189-1.242 0.153-1.273s0.752 0.544 1.242 1.080c0.675 0.733 1.787 1.494 2.858 2.102 0.634 0.36 1.674 0.315 2.286-0.081 3.127-2.025 4.729-3.96 4.648-5.638-0.099-2.012-2.61-3.177-2.633-3.186l-0.639-0.292s-0.621-0.302-0.598-0.306c0.023-0.009-0.491-0.27-1.174-0.531-1.494-0.572-3.253-1.003-4.365-0.549-0.274 0.112-0.495 0.283-0.675 0.508-0.292 0.369-0.634 0.693-0.963 0.603-0.333-0.090-0.477-0.765-0.036-1.341 0.306-0.401 0.711-0.711 1.202-0.909 1.872-0.756 4.644 0.221 6.336 0.99zM27.698 12.996c0.337 0.045 0.536 0.684 0.769 1.372 0.472 1.386 1.796 2.772 2.867 3.69 0.549 0.473 0.882 1.035 0.688 1.318s-0.837 0.171-1.391-0.297c-1.202-1.008-3.051-2.844-3.488-4.86-0.153-0.707 0.216-1.269 0.553-1.224zM21.776 38.556v-34.132c0-0.729-0.581-1.431-1.305-1.507-0.517-0.058-1.107-0.103-1.719-0.103-1.629 0-3.843 0.297-5.112 1.723-0.617 0.693-0.977 1.616-1.076 2.749-0.063 0.724 0.549 1.341 1.143 1.616 0.396 0.184 0.688 0.459 0.738 0.864 0.086 0.733-0.549 1.436-3.758 2.533-0.688 0.234-1.562 0.909-1.917 1.543-1.363 2.443-3.924 7.762-2.813 11.443 0.288 0.949 0.801 1.714 1.543 2.313 0.567 0.454 1.633 0.409 2.295 0.108 1.688-0.765 4.468-1.746 6.332-0.977 0.491 0.202 0.896 0.508 1.206 0.913 0.441 0.581 0.297 1.251-0.036 1.341s-0.671-0.234-0.963-0.607c-0.176-0.225-0.401-0.396-0.679-0.508-1.116-0.459-2.867-0.027-4.356 0.549-0.679 0.261-1.192 0.522-1.17 0.536s-0.243 0.148-0.598 0.306l-0.643 0.288c-0.023 0.013-2.538 1.174-2.633 3.186-0.081 1.692 1.548 3.645 4.729 5.688 0.612 0.396 1.656 0.437 2.286 0.081 1.103-0.617 2.263-1.399 2.961-2.16 0.491-0.536 0.904-1.107 1.247-1.080s0.549 0.662 0.148 1.273c-0.711 1.080-2.083 2.061-3.244 2.754-0.626 0.373-0.675 0.99-0.049 1.368 1.238 0.752 2.88 1.53 4.378 1.53 0.994 0 1.796-0.36 2.412-1.076 0.477-0.549 0.684-1.143 0.671-1.179-0.004-0.032-0.018-0.652-0.018-1.377zM12.969 19.377c-0.193-0.283 0.139-0.846 0.688-1.318 1.071-0.918 2.394-2.304 2.867-3.69 0.234-0.688 0.432-1.332 0.774-1.373 0.338-0.045 0.702 0.522 0.549 1.228-0.432 2.021-2.286 3.857-3.488 4.864-0.558 0.463-1.202 0.572-1.391 0.288z"></path>
</svg>
