<!-- Generated by IcoMoon.io -->
<svg version="1.1" xmlns="http://www.w3.org/2000/svg" width="45" height="45" viewBox="0 0 45 45">
<title>crutches</title>
<path fill="#2caee2" d="M24.498 18.859v0.814c0 4.819-0.004 9.643 0.013 14.468 0 0.468-0.135 0.576-0.581 0.567-1.431-0.027-2.857-0.013-4.288-0.004-0.167 0-0.409-0.094-0.427 0.221-0.018 0.342 0.243 0.27 0.432 0.27l4.392 0.004c0.144 0 0.378-0.072 0.409 0.099 0.045 0.238-0.221 0.202-0.369 0.243l-4.423 1.206c-0.099 0.027-0.202 0.041-0.297 0.081-0.189 0.077-0.167 0.248-0.135 0.396 0.036 0.198 0.207 0.117 0.288 0.077 0.81-0.409 1.526-0.063 2.259 0.238 0.792 0.328 1.593 0.639 2.398 0.936 0.252 0.094 0.364 0.229 0.324 0.495-0.045 0.311-0.288 0.184-0.446 0.189-1.462 0.009-2.925 0.004-4.392 0.009-0.18 0-0.437-0.099-0.45 0.252-0.013 0.356 0.248 0.261 0.432 0.261 0.581 0.009 1.161 0.004 1.777 0.099-0.63 0.364-1.251 0.738-1.89 1.084-0.302 0.162-0.396 0.356-0.243 0.729 0.752-0.428 1.53-0.801 2.223-1.292 0.814-0.576 1.688-0.693 2.633-0.63 0.261 0.018 0.351 0.077 0.364 0.351 0.054 1.224 0.063 1.233-1.116 1.462-1.215 0.234-2.43 0.45-3.649 0.675-0.279 0.054-0.531 0.067-0.585 0.482-0.18 1.427-1.377 2.426-2.732 2.344-1.476-0.094-2.542-1.211-2.547-2.723-0.013-2.912 0-5.823 0-8.73 0-0.742-0.004-1.481 0.004-2.223 0.004-0.229-0.054-0.311-0.302-0.364-1.642-0.369-2.358-1.314-2.358-3.006 0.004-4.014 0-8.023 0-12.038 0-0.432 0-0.864 0.117-1.283 0.319-1.134 1.328-1.908 2.524-1.922 1.53-0.013 3.064 0.009 4.599-0.018 0.409-0.004 0.473 0.139 0.468 0.504-0.013 4.788-0.009 9.576-0.004 14.364 0 0.153 0 0.311 0.004 0.463 0.004 0.157 0.086 0.27 0.247 0.27 0.158 0 0.248-0.112 0.261-0.266s0.009-0.311 0.009-0.463c0-4.77 0.009-9.54-0.013-14.31 0-0.473 0.135-0.563 0.572-0.553 1.463 0.027 2.925 0.018 4.392 0.004 0.707-0.004 1.309 0.234 1.845 0.675 1.597 1.309 3.191 2.623 4.802 3.919 0.752 0.603 1.129 1.368 1.107 2.327 0 0.122-0.004 0.243-0.004 0.36 0.004 0.36-0.112 0.792 0.045 1.067 0.184 0.319 0.657 0.086 0.999 0.131 0.328 0.041 0.527 0.193 0.527 0.517 0.004 1.858 0.099 3.722-0.045 5.576-0.067 0.9-0.558 1.692-1.071 2.43-0.666 0.963-1.354 1.908-2.048 2.853-0.369 0.504-0.531 1.035-0.527 1.678 0.027 3.272 0.009 6.543 0.009 9.814 0 0.153 0.009 0.311-0.018 0.463-0.054 0.315-0.252 0.499-0.572 0.472-0.292-0.022-0.472-0.212-0.486-0.504-0.018-0.311-0.009-0.621-0.009-0.932 0-3.101-0.013-6.201 0.018-9.302 0.004-0.643-0.162-1.174-0.531-1.678-0.679-0.932-1.363-1.858-2.016-2.813-0.527-0.769-0.977-1.579-1.125-2.524-0.032-0.202-0.058-0.409-0.063-0.617-0.004-1.548-0.004-3.101 0-4.648 0-0.643 0.153-0.792 0.783-0.797 0.103 0 0.212 0.013 0.311-0.004 0.167-0.036 0.405 0.126 0.486-0.144 0.063-0.221-0.045-0.387-0.229-0.527-0.652-0.499-1.309-1.026-2.083-1.629zM29.502 32.193c0.792-1.157 1.661-2.178 2.362-3.321 0.387-0.634 0.774-1.292 0.797-2.043 0.045-1.427 0.013-2.857 0.018-4.284 0-0.207-0.049-0.319-0.288-0.311-0.229 0.004-0.238 0.144-0.238 0.311v0.828c0 0.896 0.018 1.791-0.004 2.682-0.041 1.391-1.211 2.52-2.61 2.556-1.346 0.032-2.569-1.017-2.651-2.376-0.072-1.183-0.032-2.372-0.045-3.559 0-0.198 0.058-0.446-0.279-0.427-0.315 0.018-0.212 0.266-0.212 0.427-0.009 1.341 0 2.687-0.004 4.023 0 0.441 0.117 0.851 0.297 1.242 0.72 1.562 1.886 2.813 2.858 4.252zM19.192 0c2.938 0.018 5.328 2.421 5.301 5.342-0.023 2.902-2.426 5.283-5.319 5.278-2.961-0.004-5.319-2.43-5.297-5.449 0.023-2.817 2.462-5.188 5.314-5.171zM21.281 44.892c0.648-0.922 1.264-1.845 1.939-2.722 0.266-0.347 0.752-0.261 1.148-0.311 0.135-0.018 0.112 0.135 0.126 0.234 0.212 1.719-1.498 3.24-3.213 2.799zM22.572 42.165c-0.612 0.878-1.157 1.643-1.692 2.417-0.122 0.176-0.234 0.144-0.387 0.054-0.608-0.356-0.986-0.882-1.215-1.539-0.094-0.261 0.036-0.337 0.252-0.378 0.977-0.176 1.948-0.356 3.042-0.553zM21.321 36.819c1.053-0.283 1.976-0.527 2.898-0.788 0.221-0.063 0.279 0.013 0.274 0.216-0.004 0.513 0 1.031 0 1.543 0 0.18-0.058 0.252-0.247 0.18-0.927-0.369-1.863-0.738-2.925-1.152z"></path>
</svg>
