<!-- Generated by IcoMoon.io -->
<svg version="1.1" xmlns="http://www.w3.org/2000/svg" width="45" height="45" viewBox="0 0 45 45">
<title>lungs</title>
<path fill="#2caee2" d="M22.671 23.535c-0.954 0.868-1.886 1.701-2.803 2.552-0.257 0.238-0.454 0.544-0.729 0.752-0.454 0.342-0.499 0.783-0.504 1.301-0.013 2.651-0.086 5.301-0.513 7.924-0.009 0.058-0.022 0.117-0.027 0.171-0.094 1.408-1.035 1.931-2.25 2.205-1.984 0.441-3.982 0.459-5.994 0.288-1.44-0.122-2.844-0.396-4.226-0.828-1.593-0.504-2.362-1.642-2.642-3.208-0.302-1.697-0.148-3.397-0.054-5.098 0.108-1.89 0.248-3.776 0.306-5.67 0.054-1.764 0.513-3.416 1.224-5.004 1.881-4.189 4.464-7.893 7.727-11.124 0.338-0.338 0.729-0.63 1.121-0.9 0.603-0.414 1.107-0.437 1.624 0.081 0.491 0.495 0.936 1.084 1.238 1.71 0.832 1.728 1.247 3.6 1.489 5.49 0.328 2.524 0.544 5.063 0.806 7.592 0.004 0.054 0.018 0.103 0.041 0.252 0.477-0.508 0.859-1.008 1.332-1.399 0.698-0.585 0.882-1.282 0.868-2.178-0.049-3.906-0.023-7.812-0.023-11.718v-0.536h3.596v0.558c0 4.153-0.004 8.307 0.013 12.461 0 0.266 0.117 0.567 0.274 0.783 0.499 0.679 1.048 1.323 1.579 1.98 0.077 0.094 0.167 0.18 0.311 0.337 0.045-0.652 0.090-1.211 0.126-1.773 0.18-2.745 0.482-5.477 1.062-8.172 0.311-1.436 0.657-2.867 1.399-4.153 0.27-0.468 0.634-0.909 1.035-1.269 0.463-0.414 1.044-0.482 1.557-0.058 0.707 0.585 1.431 1.157 2.048 1.827 2.794 2.993 5.098 6.323 6.782 10.062 0.832 1.849 1.282 3.771 1.301 5.823 0.022 2.196 0.266 4.387 0.382 6.583 0.077 1.413 0.090 2.826-0.315 4.203-0.347 1.183-1.062 2.007-2.246 2.426-1.8 0.639-3.658 0.909-5.558 0.99-1.489 0.063-2.974 0.045-4.433-0.279-2.543-0.567-2.479-0.877-2.803-2.997-0.401-2.61-0.45-5.247-0.437-7.884 0.004-0.441-0.108-0.752-0.441-1.057-1.152-1.039-2.268-2.124-3.244-3.042z"></path>
</svg>
