<!-- Generated by IcoMoon.io -->
<svg version="1.1" xmlns="http://www.w3.org/2000/svg" width="45" height="45" viewBox="0 0 45 45">
<title>pulse</title>
<path fill="#2caee2" d="M22.935 36.544c-0.15 0.39-0.524 0.648-0.935 0.653h-0.013c-0.413 0-0.785-0.253-0.94-0.639l-7.597-18.844-2.719 5.598c-0.169 0.349-0.524 0.572-0.914 0.572h-6.534c0.073 0.124 0.132 0.248 0.21 0.377l1.763 2.545c0.438 0.57 0.914 1.128 1.433 1.69 5.902 6.37 9.965 11.086 12.483 14.11 1.809 2.188 4.668 2.214 6.487 0.033 2.408-2.905 6.238-7.391 11.715-13.371l-11.647 0.005-2.793 7.27zM33.223 0.72c-3.050 0.005-5.838 1.18-7.928 3.098-2.090 1.927-3.759 1.927-5.861 0.010-2.093-1.908-4.873-3.077-7.931-3.063-4.714 0.005-8.774 2.784-10.64 6.791-1.198 2.577-1.018 7.31-0.253 10.051 0.365 1.308 0.909 2.801 1.655 4.364 0.134-0.065 0.283-0.111 0.443-0.111h6.477l3.445-7.078c0.175-0.36 0.588-0.592 0.943-0.567 0.405 0.013 0.755 0.261 0.911 0.631l7.485 18.571 2.12-5.517c0.15-0.39 0.527-0.648 0.943-0.648h13.102c0.261-0 0.512 0.102 0.699 0.283 0.309-0.42 0.682-0.936 1.046-1.449 0.954-1.322 2.918-4.381 3.84-7.070 1.282-3.77 1.282-6.555 1.282-6.555-0.011-6.504-5.287-11.758-11.777-11.741z"></path>
</svg>
