<!-- Generated by IcoMoon.io -->
<svg version="1.1" xmlns="http://www.w3.org/2000/svg" width="45" height="45" viewBox="0 0 45 45">
<title>tooth</title>
<path fill="#2caee2" d="M39.699 7.384c-0.094-1.778-1.080-4.041-1.967-5.081-0.891-1.035-2.552-2.021-3.703-2.201-1.161-0.176-3.523-0.126-5.288 0.117l-6.259 0.851-6.255-0.851c-1.768-0.243-4.131-0.292-5.287-0.117-1.157 0.18-2.813 1.166-3.703 2.201-0.891 1.044-1.872 3.307-1.971 5.081-0.171 3.146 0.036 8.127 2.291 12.69 0 0 1.611 3.222 1.611 8.379 0 3.767 1.436 11.898 3.298 15.507 0.814 1.584 3.263 1.282 3.758-0.432 1.732-5.989 2.97-21.083 6.259-21.042 3.294-0.041 4.527 15.048 6.264 21.042 0.495 1.71 2.938 2.012 3.758 0.432 1.863-3.613 3.298-11.741 3.298-15.507 0-5.152 1.611-8.379 1.611-8.379 2.241-4.563 2.453-9.544 2.286-12.69z"></path>
</svg>
