<!-- Generated by IcoMoon.io -->
<svg version="1.1" xmlns="http://www.w3.org/2000/svg" width="45" height="45" viewBox="0 0 45 45">
<title>xray</title>
<path fill="#2caee2" d="M26.901 4.23c0 2.336-1.894 4.23-4.23 4.23s-4.23-1.899-4.23-4.23 1.899-4.23 4.23-4.23 4.23 1.894 4.23 4.23zM31.914 9.283h-18.851c-0.688 0-1.251 0.563-1.251 1.251v13.149c0 0.688 0.563 1.251 1.251 1.251h4.608l0.009 3.42v14.337c0 1.273 0.977 2.308 2.007 2.308 1.035 0 1.872-1.031 1.872-2.308v-12.681h2.327v12.677c0 1.278 0.837 2.313 1.867 2.313s1.908-1.035 1.908-2.313l0.018-14.49v-3.267h4.23c0.688 0 1.251-0.562 1.251-1.251v-13.149c0-0.684-0.558-1.247-1.247-1.247zM22.986 13.549h3.866c0.131 0 0.247 0.049 0.324 0.135 0.081 0.090 0.112 0.212 0.099 0.342l-0.086 0.716-3.722 0.369c-0.139 0.013-0.306 0.018-0.486 0.027l0.004-1.588zM22.991 17.599c0.207-0.004 0.405-0.013 0.567-0.027l3.339-0.347-0.144 1.215-3.249 0.351c-0.148 0.013-0.324 0.027-0.508 0.027l-0.004-1.219zM23.494 16.947c-0.148 0.013-0.324 0.023-0.504 0.027v-1.219c0.193-0.004 0.387-0.013 0.544-0.032l3.578-0.356-0.144 1.215-3.474 0.364zM22.365 22.221h-2.749c-0.302 0-0.585-0.252-0.621-0.553l-0.094-0.774 3.128 0.36c0.099 0.013 0.221 0.013 0.337 0.027v0.941zM22.365 20.651c-0.094-0.004-0.193-0.013-0.27-0.023l-3.276-0.373-0.135-1.183 3.154 0.338c0.153 0.018 0.337 0.032 0.527 0.032v1.211zM22.365 18.819c-0.167-0.009-0.324-0.018-0.454-0.027l-3.303-0.36-0.144-1.215 3.375 0.351c0.153 0.013 0.337 0.023 0.531 0.027v1.224h-0.004zM22.365 16.974c-0.167-0.004-0.328-0.013-0.463-0.027l-3.519-0.369-0.144-1.206 3.578 0.356c0.157 0.018 0.351 0.027 0.544 0.032v1.215zM22.365 15.129c-0.176-0.004-0.347-0.013-0.486-0.027l-3.717-0.369-0.081-0.711c-0.018-0.131 0.013-0.252 0.099-0.342 0.077-0.090 0.198-0.139 0.324-0.139h3.861v1.588zM22.365 12.924h-3.861c-0.315 0-0.594 0.122-0.792 0.347-0.198 0.229-0.288 0.522-0.252 0.828l0.913 7.641c0.072 0.617 0.621 1.102 1.242 1.102h2.749v1.251h-6.628c-0.131-0.094-0.225-0.243-0.225-0.418v-11.034c0-0.283 0.234-0.522 0.522-0.522h6.332v0.806zM22.365 11.498h-6.336c-0.63 0-1.143 0.518-1.143 1.148v11.038c0 0.148 0.027 0.283 0.081 0.414h-1.903c-0.234 0-0.418-0.184-0.418-0.414v-13.153c0-0.229 0.184-0.418 0.418-0.418h9.302v1.386zM22.986 19.44c0.207-0.004 0.409-0.013 0.572-0.032l3.114-0.328-0.148 1.224-2.848 0.324c-0.193 0.027-0.441 0.032-0.693 0.036l0.004-1.224zM22.986 21.289c0.279 0 0.549-0.013 0.765-0.036l2.7-0.311-0.090 0.724c-0.036 0.302-0.324 0.553-0.621 0.553h-2.749l-0.004-0.932zM29.592 24.093h-6.602v-1.251h2.754c0.621 0 1.17-0.486 1.242-1.098l0.913-7.646c0.036-0.311-0.054-0.608-0.252-0.828-0.193-0.225-0.482-0.347-0.792-0.347h-3.861v-0.801h6.3c0.288 0 0.522 0.238 0.522 0.522v11.038c0 0.171-0.094 0.319-0.225 0.409zM32.333 23.683c0 0.229-0.184 0.414-0.418 0.414h-1.552c0.054-0.131 0.081-0.266 0.081-0.414v-11.038c0-0.63-0.513-1.143-1.147-1.143h-6.3v-1.386h8.928c0.225 0 0.414 0.184 0.414 0.418l-0.004 13.149z"></path>
</svg>
